<svg xmlns="http://www.w3.org/2000/svg" id="reload" enable-background="new 0 0 512 512" viewBox="0 0 512 512">
  <polygon fill="#0062ff" points="483.65 336.22 422.17 371.92 386.26 309.34 337.34 343.43 400.22 452.99 512 388.42"></polygon>
  <path fill="#0062ff" d="M13.16 277.18c1.5.7 3.08 1.25 4.78 1.65 1.86.43 3.74.65 5.6.65 4.52 0 8.97-1.26 12.9-3.71 5.56-3.46 9.43-8.89 10.89-15.23 1.25-5.38 2.78-10.82 4.53-16.15 2.06-6.25 1.54-12.94-1.47-18.83-2.98-5.83-8.02-10.13-14.19-12.12-6.19-2.02-12.8-1.52-18.62 1.41-5.84 2.94-10.18 7.98-12.23 14.2-2.21 6.71-4.13 13.56-5.72 20.39C-2.97 260.66 2.72 272.33 13.16 277.18zM30.47 357.79c1.65-.14 3.29-.45 4.95-.95 6.27-1.88 11.43-6.1 14.53-11.87 3.1-5.77 3.76-12.4 1.87-18.63-1.59-5.29-2.97-10.77-4.11-16.26-1.32-6.45-5.1-11.99-10.65-15.61-5.49-3.58-11.99-4.8-18.34-3.45-6.38 1.33-11.86 5.05-15.45 10.49-3.6 5.46-4.86 11.99-3.54 18.4 1.42 6.92 3.17 13.82 5.19 20.53 3.12 10.37 12.79 17.43 23.47 17.43C29.08 357.88 29.77 357.85 30.47 357.79zM79.75 387.23c-3.37-4.37-6.63-8.99-9.65-13.71-3.54-5.55-9.05-9.37-15.52-10.77-6.4-1.37-12.92-.19-18.36 3.34-5.48 3.52-9.27 8.96-10.68 15.33-1.41 6.38-.25 12.93 3.27 18.45 3.8 5.95 7.9 11.78 12.19 17.32 4.75 6.14 12.03 9.49 19.44 9.49 3.6 0 7.22-.79 10.6-2.43 1.48-.72 2.9-1.59 4.3-2.66 5.18-4 8.49-9.78 9.32-16.28C85.5 398.8 83.74 392.37 79.75 387.23zM137.01 430.43c-4.89-2.55-9.77-5.39-14.5-8.42-5.54-3.56-12.14-4.73-18.6-3.29-6.39 1.43-11.82 5.23-15.28 10.71-3.5 5.49-4.67 12.01-3.28 18.38 1.39 6.39 5.19 11.85 10.69 15.39 5.95 3.82 12.11 7.4 18.31 10.63 3.56 1.86 7.43 2.75 11.27 2.75 7.16 0 14.22-3.12 18.98-8.92 1.04-1.27 1.96-2.66 2.79-4.21 3.03-5.8 3.62-12.44 1.66-18.68C147.07 438.54 142.79 433.43 137.01 430.43zM455.82 190.63c-21.41-58.57-64.27-105.27-120.68-131.49-116.63-54.2-255.6-3.4-309.8 113.22-2.76 5.93-3.04 12.59-.8 18.73 2.24 6.14 6.75 11.04 12.68 13.8 12.24 5.69 26.84.36 32.53-11.89 20.7-44.55 57.6-78.41 103.88-95.32 46.28-16.92 96.31-14.83 140.87 5.88 44.55 20.71 78.41 57.6 95.32 103.88 16.92 46.29 14.83 96.31-5.88 140.87-2.76 5.93-3.04 12.58-.8 18.73s6.75 11.04 12.68 13.8c3.29 1.53 6.8 2.3 10.31 2.3 2.83 0 5.67-.5 8.41-1.5 6.14-2.24 11.04-6.75 13.8-12.68C474.57 312.53 477.22 249.2 455.82 190.63z"></path>
</svg>
